<svg xmlns="http://www.w3.org/2000/svg" viewBox="0 0 100 100"><defs><style>.cls-1{fill:#231f20;}</style></defs><g id="Layer_2" data-name="Layer 2"><g id="Layer_1-2" data-name="Layer 1"><path class="cls-1" d="M69.8,17.79H3.59c-2,0-3.59-2.33-3.59-5.19S1.61,7.4,3.59,7.4H69.78a7.48,7.48,0,0,0-1.86,5.2A7.42,7.42,0,0,0,69.8,17.79Z"/><path class="cls-1" d="M100,12.6c0,2.86-1.61,5.19-3.59,5.19H74.81a7.46,7.46,0,0,0,1.88-5.19,7.44,7.44,0,0,0-1.87-5.2H96.41C98.39,7.4,100,9.73,100,12.6Z"/><path class="cls-1" d="M27,55.5H3.59c-2,0-3.59-2.33-3.59-5.2s1.61-5.2,3.59-5.2H26.44A7.67,7.67,0,0,0,24.83,50,7.17,7.17,0,0,0,27,55.5Z"/><path class="cls-1" d="M100,50.3c0,2.87-1.61,5.2-3.59,5.2h-65A7.17,7.17,0,0,0,33.61,50,7.67,7.67,0,0,0,32,45.1H96.41C98.39,45.1,100,47.43,100,50.3Z"/><path class="cls-1" d="M70.52,93.2H3.59C1.61,93.2,0,90.88,0,88s1.61-5.2,3.59-5.2H69.31a7.74,7.74,0,0,0-1.39,4.61C67.92,90,69,92.23,70.52,93.2Z"/><path class="cls-1" d="M100,88c0,2.87-1.61,5.19-3.59,5.19H74.09c1.54-1,2.6-3.2,2.6-5.78a7.74,7.74,0,0,0-1.39-4.61H96.41C98.39,82.81,100,85.14,100,88Z"/><path class="cls-1" d="M80.21,7.4C78.85,3,75.82,0,72.3,0s-6.54,3-7.9,7.4a16.72,16.72,0,0,0-.79,5.2,16.65,16.65,0,0,0,.79,5.19c1.36,4.35,4.39,7.38,7.9,7.38s6.55-3,7.91-7.38A16.65,16.65,0,0,0,81,12.6,16.72,16.72,0,0,0,80.21,7.4ZM72.3,18.94a3.45,3.45,0,0,1-2.5-1.15,7.42,7.42,0,0,1-1.88-5.19,7.48,7.48,0,0,1,1.86-5.2,3.32,3.32,0,0,1,5,0,7.44,7.44,0,0,1,1.87,5.2,7.46,7.46,0,0,1-1.88,5.19A3.47,3.47,0,0,1,72.3,18.94Z"/><path class="cls-1" d="M80.38,82.81c-1.26-4.68-4.42-8-8.08-8s-6.81,3.3-8.07,8a16.57,16.57,0,0,0-.62,4.61,16.93,16.93,0,0,0,1,5.78C66,97.24,69,100,72.3,100s6.27-2.76,7.72-6.8a17.5,17.5,0,0,0,.36-10.39Zm-8.08,11a3,3,0,0,1-1.78-.56c-1.54-1-2.6-3.2-2.6-5.78a7.74,7.74,0,0,1,1.39-4.61,3.44,3.44,0,0,1,6,0,7.74,7.74,0,0,1,1.39,4.61c0,2.58-1.06,4.81-2.6,5.78A3.06,3.06,0,0,1,72.3,93.76Z"/><path class="cls-1" d="M37.23,45.1c-1.34-4.51-4.43-7.69-8-7.69s-6.68,3.18-8,7.69A17.49,17.49,0,0,0,20.52,50a16.94,16.94,0,0,0,.89,5.49c1.4,4.2,4.37,7.09,7.8,7.09S35.63,59.7,37,55.5A16.68,16.68,0,0,0,37.91,50,17.5,17.5,0,0,0,37.23,45.1Zm-8,11.25A3.38,3.38,0,0,1,27,55.5,7.17,7.17,0,0,1,24.83,50a7.67,7.67,0,0,1,1.61-4.91,3.39,3.39,0,0,1,5.56,0A7.67,7.67,0,0,1,33.61,50a7.17,7.17,0,0,1-2.2,5.49A3.41,3.41,0,0,1,29.21,56.35Z"/></g></g></svg>