<svg xmlns="http://www.w3.org/2000/svg" viewBox="0 0 110 110"><defs><style>.cls-1{fill:none;stroke:#231f20;stroke-miterlimit:10;stroke-width:10px;}</style></defs><g id="Layer_2" data-name="Layer 2"><g id="Layer_1-2" data-name="Layer 1"><path class="cls-1" d="M65.49,98.87V84.18C65.49,80.79,67.06,78,69,78h32.49c1.94,0,3.51,2.75,3.51,6.14V98.87c0,3.38-1.57,6.13-3.51,6.13H69C67.06,105,65.49,102.25,65.49,98.87Z"/><path class="cls-1" d="M5,101.3V47.35a3.6,3.6,0,0,1,3.51-3.69H44.94a3.6,3.6,0,0,1,3.51,3.69v54a3.61,3.61,0,0,1-3.51,3.7H8.51A3.61,3.61,0,0,1,5,101.3Z"/><path class="cls-1" d="M65.49,60.44V8.75A3.64,3.64,0,0,1,69,5h32.49A3.64,3.64,0,0,1,105,8.75V60.44a3.64,3.64,0,0,1-3.51,3.75H69A3.64,3.64,0,0,1,65.49,60.44Z"/><path class="cls-1" d="M5,22.56V11.77C5,8,6.57,5,8.51,5H44.94c1.94,0,3.51,3,3.51,6.77V22.56c0,3.74-1.57,6.77-3.51,6.77H8.51C6.57,29.33,5,26.3,5,22.56Z"/></g></g></svg>