<svg xmlns="http://www.w3.org/2000/svg" viewBox="0 0 89.77 103"><defs><style>.cls-1{fill:#ee3332;}</style></defs><g id="Layer_2" data-name="Layer 2"><g id="Layer_1-2" data-name="Layer 1"><path class="cls-1" d="M79.66,103H10.11C4.54,103,0,97.89,0,91.61V23.1c0-6.28,4.54-11.38,10.11-11.38h8.7a3.5,3.5,0,1,1,0,7h-8.7c-1.68,0-3.11,2-3.11,4.38V91.61C7,94,8.43,96,10.11,96H79.66c1.69,0,3.11-2,3.11-4.39V23.1c0-2.37-1.42-4.38-3.11-4.38H73a3.5,3.5,0,0,1,0-7h6.71c5.57,0,10.11,5.1,10.11,11.38V91.61C89.77,97.89,85.23,103,79.66,103Z"/><path class="cls-1" d="M56.71,29.68h-21a11.82,11.82,0,0,1-11.8-11.8V11.8A11.81,11.81,0,0,1,35.71,0h21a11.81,11.81,0,0,1,11.8,11.8v6.08A11.82,11.82,0,0,1,56.71,29.68ZM35.71,7a4.8,4.8,0,0,0-4.8,4.8v6.08a4.81,4.81,0,0,0,4.8,4.8h21a4.81,4.81,0,0,0,4.8-4.8V11.8A4.8,4.8,0,0,0,56.71,7Z"/></g></g></svg>