<svg xmlns="http://www.w3.org/2000/svg" viewBox="0 0 102.41 100.26"><defs><style>.cls-1{fill:#ee3332;}</style></defs><g id="Layer_2" data-name="Layer 2"><g id="Layer_1-2" data-name="Layer 1"><path class="cls-1" d="M51.15,100.26C22.94,100.26,0,77.83,0,50.26S22.94.26,51.15.26a2.25,2.25,0,0,1,2.27,2.22,2.25,2.25,0,0,1-2.27,2.23c-25.7,0-46.6,20.43-46.6,45.55s20.9,45.55,46.6,45.55A46.76,46.76,0,0,0,93.69,68.87a2.29,2.29,0,0,1,3-1.12,2.2,2.2,0,0,1,1.15,2.94A51.3,51.3,0,0,1,51.15,100.26Z"/><path class="cls-1" d="M51.59,5c3.22,0,3.22-5,0-5s-3.22,5,0,5Z"/><path class="cls-1" d="M60.07,5.8c3.22,0,3.22-5,0-5s-3.22,5,0,5Z"/><path class="cls-1" d="M68.27,8c3.22,0,3.23-5,0-5s-3.22,5,0,5Z"/><path class="cls-1" d="M76,11.62c3.22,0,3.22-5,0-5s-3.22,5,0,5Z"/><path class="cls-1" d="M82.89,16.45c3.22,0,3.22-5,0-5s-3.22,5,0,5Z"/><path class="cls-1" d="M88.86,22.39c3.21,0,3.22-5,0-5s-3.23,5,0,5Z"/><path class="cls-1" d="M93.68,29.26c3.22,0,3.22-5,0-5s-3.22,5,0,5Z"/><path class="cls-1" d="M97.21,36.83c3.21,0,3.22-5,0-5s-3.23,5,0,5Z"/><path class="cls-1" d="M99.34,44.9c3.21,0,3.22-5,0-5s-3.23,5,0,5Z"/><path class="cls-1" d="M100,53.2c3.22,0,3.22-5,0-5s-3.22,5,0,5Z"/><path class="cls-1" d="M99.18,61.48c3.22,0,3.22-5,0-5s-3.22,5,0,5Z"/><path class="cls-1" d="M96.9,69.5c3.22,0,3.22-5,0-5s-3.22,5,0,5Z"/><path class="cls-1" d="M73.84,64.09a2.26,2.26,0,0,1-1-.22L48,52.27a2.23,2.23,0,0,1-1.3-2V12.5a2.28,2.28,0,0,1,4.56,0V48.86l23.52,11a2.19,2.19,0,0,1,1.07,3A2.27,2.27,0,0,1,73.84,64.09Z"/></g></g></svg>