<svg class="svg-message" xmlns="http://www.w3.org/2000/svg" viewBox="0 0 1534.88 1182.63"><defs></defs><g id="Layer_2" data-name="Layer 2"><g id="Layer_1-2" data-name="Layer 1"><polygon class="svg-message-cls-polygond" points="1496.44 1075.84 1496.44 220.25 974.55 553.95 1496.44 1075.84"/><path class="svg-message-cls-polygond" d="M13.47,169.52l734.75,469.8,171.1-109.4a24.56,24.56,0,0,1,4.19-2.68L1483,169.52a24.87,24.87,0,0,1,13.47-3.93V9H0V165.59A24.84,24.84,0,0,1,13.47,169.52Z"/><polygon class="svg-message-cls-polygond" points="0 220.25 0 1075.84 521.89 553.95 0 220.25"/><path class="svg-message-cls-polygond" d="M1496.44,1136.2a24.94,24.94,0,0,1-17.68-7.32L931.42,581.53,761.69,690.06a25,25,0,0,1-26.94,0L565,581.53,17.68,1128.88A24.93,24.93,0,0,1,0,1136.2v46.43H1496.44V1136.2Z"/><circle class="svg-message-cls-circle" cx="1358.74" cy="176.14" r="176.14"/></g></g></svg>