<svg class="svg-message" xmlns="http://www.w3.org/2000/svg" viewBox="0 0 1599.61 1312.63"><defs></defs><g id="Layer_2" data-name="Layer 2"><g id="Layer_1-2" data-name="Layer 1"><path class="svg-message-cls-polygon" d="M1536.44,1126.06V375.48a24.76,24.76,0,0,0-38.1-20.86L1040.5,647.36a24.76,24.76,0,0,0-4.17,38.37l457.84,457.84C1509.77,1159.17,1536.44,1148.12,1536.44,1126.06Z"/><path class="svg-message-cls-polygon" d="M33.47,249.52l681.83,436a98.28,98.28,0,0,0,105.84,0l117.33-75c.56-.36,1.11-.75,1.65-1.15a26.19,26.19,0,0,1,2.49-1.59c.59-.33,1.18-.66,1.76-1L1503,249.52l.13-.08a28.07,28.07,0,0,0,13.34-23.67V119.47A30.45,30.45,0,0,0,1486,89H115.15A95.15,95.15,0,0,0,20,184.17v41.6a28.07,28.07,0,0,0,13.34,23.67Z"/><path class="svg-message-cls-polygon" d="M0,375.48v750.58c0,22.06,26.68,33.11,42.28,17.51L500.11,685.73a24.76,24.76,0,0,0-4.17-38.37L38.11,354.62A24.77,24.77,0,0,0,0,375.48Z"/><path class="svg-message-cls-polygon" d="M1516.44,1266.2a24.94,24.94,0,0,1-17.68-7.32L999.24,759.35A84.13,84.13,0,0,0,894.44,748l-112.75,72.1a25,25,0,0,1-26.94,0L653.28,755.17a100.77,100.77,0,0,0-125.54,13.65L37.68,1258.88a25.32,25.32,0,0,1-5,3.86A25.22,25.22,0,0,0,20,1284.37h0a28.26,28.26,0,0,0,28.27,28.26H1488.18a28.26,28.26,0,0,0,28.26-28.26V1266.2Z"/><circle class="svg-message-cls-circle" cx="1264.1" cy="335.5" r="335.5"/></g></g></svg>