<svg xmlns="http://www.w3.org/2000/svg" viewBox="0 0 102.08 102.08"><defs><style>.cls-1{fill:#ee3332;}</style></defs><g id="Layer_2" data-name="Layer 2"><g id="Layer_1-2" data-name="Layer 1"><path class="cls-1" d="M51,102.08a51,51,0,1,1,51-51A51.1,51.1,0,0,1,51,102.08ZM51,9A42.09,42.09,0,1,0,93.13,51,42.14,42.14,0,0,0,51,9Z"/><path class="cls-1" d="M45.6,63.25l-.16-2.18c-.5-4.51,1-9.45,5.18-14.46,3.76-4.43,5.85-7.69,5.85-11.46,0-4.26-2.67-7.1-7.94-7.19a14.87,14.87,0,0,0-8.45,2.6l-2-5.27c2.76-2,7.52-3.35,12-3.35,9.62,0,14,5.94,14,12.29,0,5.69-3.18,9.78-7.19,14.55-3.68,4.35-5,8-4.77,12.29l.08,2.18ZM43.76,75a5,5,0,0,1,5-5.27c2.93,0,4.93,2.18,4.93,5.27a5,5,0,1,1-10,0Z"/></g></g></svg>