<svg xmlns="http://www.w3.org/2000/svg" viewBox="0 0 144.34 91.25"><defs><style>.cls-1{fill:#231f20;}.cls-2{fill:#ee3332;}</style></defs><g id="Layer_2" data-name="Layer 2"><g id="Layer_1-2" data-name="Layer 1"><polygon class="cls-1" points="143.13 72.53 143.13 19.23 92.31 50.34 143.13 72.53"/><path class="cls-1" d="M143.12,77.76a2.48,2.48,0,0,1-1-.21l-55-24-8.39,5.14a16.52,16.52,0,0,1-17.44-.18l-8-5.14L0,76.6v5.11a9.54,9.54,0,0,0,9.53,9.54H133.59a9.54,9.54,0,0,0,9.54-9.54V77.76Z"/><path class="cls-1" d="M1.35,14.2,64,54.28a11.52,11.52,0,0,0,12.14.12l65.71-40.23a2.39,2.39,0,0,1,1.28-.36,9.52,9.52,0,0,0-9.51-9H9.53a9.52,9.52,0,0,0-9.5,9A2.39,2.39,0,0,1,1.35,14.2Z"/><polygon class="cls-1" points="0 19.27 0 71.14 48.18 50.11 0 19.27"/><circle class="cls-2" cx="131.67" cy="12.66" r="12.66"/></g></g></svg>