<svg xmlns="http://www.w3.org/2000/svg" viewBox="0 0 69.63 48.11"><defs><style>.cls-1{fill:#231f20;}</style></defs><g id="Layer_2" data-name="Layer 2"><g id="Layer_1-2" data-name="Layer 1"><path class="cls-1" d="M48.6,8.56H2.5a2.5,2.5,0,0,1,0-5H48.59a3,3,0,0,0,0,5Z"/><path class="cls-1" d="M69.63,6.06a2.5,2.5,0,0,1-2.5,2.5h-15a3,3,0,0,0,0-5h15A2.5,2.5,0,0,1,69.63,6.06Z"/><path class="cls-1" d="M18.82,26.7H2.5a2.5,2.5,0,0,1,0-5H18.41a3,3,0,0,0,.41,5Z"/><path class="cls-1" d="M69.63,24.2a2.5,2.5,0,0,1-2.5,2.5H21.87a3,3,0,0,0,.41-5H67.13A2.5,2.5,0,0,1,69.63,24.2Z"/><path class="cls-1" d="M49.1,44.84H2.5a2.5,2.5,0,0,1,0-5H48.26a3,3,0,0,0-1,2.22A3,3,0,0,0,49.1,44.84Z"/><path class="cls-1" d="M69.63,42.34a2.5,2.5,0,0,1-2.5,2.5H51.59a3,3,0,0,0,1.81-2.78,3,3,0,0,0-1-2.22h14.7A2.5,2.5,0,0,1,69.63,42.34Z"/><path class="cls-1" d="M55.85,3.56a6,6,0,0,0-11,0,6,6,0,0,0,0,5,6,6,0,0,0,11,0,6,6,0,0,0,0-5ZM50.34,9.11a3,3,0,0,1-1.74-.55,3,3,0,0,1,0-5,3.06,3.06,0,0,1,4.81,2.5,3.05,3.05,0,0,1-1.31,2.5A3,3,0,0,1,50.34,9.11Z"/><path class="cls-1" d="M56,39.84a6,6,0,0,0-11.25,0,5.82,5.82,0,0,0-.43,2.22A5.92,5.92,0,0,0,45,44.84a6.05,6.05,0,0,0,10.75,0,5.92,5.92,0,0,0,.68-2.78A5.82,5.82,0,0,0,56,39.84Zm-5.63,5.27a2.88,2.88,0,0,1-1.24-.27,3,3,0,0,1-1.81-2.78,3,3,0,0,1,1-2.22,3,3,0,0,1,4.17,0,3,3,0,0,1,1,2.22,3,3,0,0,1-1.81,2.78A2.89,2.89,0,0,1,50.34,45.11Z"/><path class="cls-1" d="M25.92,21.7a6.05,6.05,0,0,0-11.15,0,6,6,0,0,0-.48,2.36,5.86,5.86,0,0,0,.62,2.64,6,6,0,0,0,10.87,0,5.86,5.86,0,0,0,.62-2.64A6,6,0,0,0,25.92,21.7Zm-5.58,5.41a3,3,0,0,1-1.93-5.41,3,3,0,0,1,3.87,0,3.05,3.05,0,0,1-1.94,5.41Z"/></g></g></svg>