<svg xmlns="http://www.w3.org/2000/svg" viewBox="0 0 118.2 90"><defs><style>.cls-1{fill:#ee3332;}</style></defs><g id="Layer_2" data-name="Layer 2"><g id="Layer_1-2" data-name="Layer 1"><path class="cls-1" d="M67.29,84.08H12.11C5.43,84.08,0,77.57,0,69.56V20.44c0-8,5.43-14.52,12.11-14.52H67.29C74,5.92,79.4,12.43,79.4,20.44V69.56C79.4,77.57,74,84.08,67.29,84.08ZM12.11,14.31C9.29,14.31,7,17.06,7,20.44V69.56c0,3.38,2.29,6.13,5.11,6.13H67.29c2.82,0,5.11-2.75,5.11-6.13V20.44c0-3.38-2.29-6.13-5.11-6.13Z"/><path class="cls-1" d="M114.7,90a2.94,2.94,0,0,1-1.45-.38l-38.8-21.1a4.31,4.31,0,0,1-2-3.82V25.31a4.3,4.3,0,0,1,2-3.82L113.25.37a3,3,0,0,1,3.35.3,4.45,4.45,0,0,1,1.6,3.53V85.8a4.45,4.45,0,0,1-1.6,3.53A3.14,3.14,0,0,1,114.7,90ZM79.4,62l31.8,17.3V10.71L79.4,28Z"/></g></g></svg>