<svg xmlns="http://www.w3.org/2000/svg" viewBox="0 0 100 100"><defs><style>.cls-1{fill:#ee3332;}</style></defs><g id="Layer_2" data-name="Layer 2"><g id="Layer_1-2" data-name="Layer 1"><path class="cls-1" d="M86.39,100H13.61A13.63,13.63,0,0,1,0,86.39V13.61A13.63,13.63,0,0,1,13.61,0H86.39A13.63,13.63,0,0,1,100,13.61V86.39A13.63,13.63,0,0,1,86.39,100ZM13.61,9A4.61,4.61,0,0,0,9,13.61V86.39a4.61,4.61,0,0,0,4.6,4.6H86.39a4.61,4.61,0,0,0,4.6-4.6V13.61A4.61,4.61,0,0,0,86.39,9Z"/><path class="cls-1" d="M64.15,68.87A4.5,4.5,0,0,1,61,67.55l-36-36a4.51,4.51,0,1,1,6.37-6.38L59.64,53.49V37.6a4.51,4.51,0,0,1,9,0V64.36a4.5,4.5,0,0,1-4.51,4.51Z"/><path class="cls-1" d="M64.15,68.87H38.36a4.51,4.51,0,0,1,0-9H64.15a4.51,4.51,0,1,1,0,9Z"/></g></g></svg>