<svg xmlns="http://www.w3.org/2000/svg" viewBox="0 0 1617.51 1328.39"><defs><style>.cls-1{fill:#00aeef;}</style></defs><g id="Layer_2" data-name="Layer 2"><g id="Layer_1-2" data-name="Layer 1"><path class="cls-1" d="M1577.51,1328.39H40a40,40,0,0,1-40-40V273.69a40,40,0,0,1,40-40H1577.51a40,40,0,0,1,40,40v1014.7A40,40,0,0,1,1577.51,1328.39ZM80,1248.39H1537.51V313.69H80Z"/><path class="cls-1" d="M1412.54,193.63H205a40,40,0,0,1,0-80H1412.54a40,40,0,0,1,0,80Z"/><path class="cls-1" d="M1208.44,80H409.07a40,40,0,0,1,0-80h799.37a40,40,0,0,1,0,80Z"/></g></g></svg>