<svg xmlns="http://www.w3.org/2000/svg" viewBox="0 0 1933.24 1774.13"><defs><style>.cls-1{fill:none;}</style></defs><g id="Layer_2" data-name="Layer 2"><g id="Layer_1-2" data-name="Layer 1"><path class="cls-1" d="M780.2,734.89H105.09C91.25,734.89,80,745.05,80,757.54v913.94c0,12.49,11.25,22.64,25.09,22.64H780.2c13.83,0,25.08-10.15,25.08-22.64V757.54C805.28,745.05,794,734.89,780.2,734.89Z"/><path class="cls-1" d="M779.86,80H105.42c-1.61.64-7.66,4.94-13.83,17.65C84.12,113.05,80,133.31,80,154.7V337.47c0,21.39,4.12,41.65,11.59,57,6.17,12.71,12.22,17,13.83,17.65H779.86c1.62-.64,7.67-4.94,13.83-17.65,7.48-15.4,11.59-35.66,11.59-57V154.7c0-21.39-4.11-41.65-11.59-57C787.53,84.94,781.47,80.64,779.86,80Z"/><path class="cls-1" d="M1828.15,1317.43H1226.06c-1.51,0-6.65,2.93-12.12,11.66-8.24,13.16-13,32.2-13,52.25v248.87c0,20,4.73,39.09,13,52.25,5.46,8.73,10.61,11.66,12.12,11.66h602.09c1.51,0,6.66-2.93,12.13-11.66,8.24-13.16,13-32.2,13-52.25V1381.34c0-20-4.72-39.09-13-52.25C1834.81,1320.36,1829.66,1317.43,1828.15,1317.43Z"/><path class="cls-1" d="M1828.15,80H1226.06c-13.83,0-25.09,10.55-25.09,23.51V979.28c0,13,11.26,23.51,25.09,23.51h602.09c13.84,0,25.09-10.54,25.09-23.51V103.51C1853.24,90.55,1842,80,1828.15,80Z"/><path d="M1828.15,1237.43H1226.06c-31.21,0-60.34,17.93-79.92,49.2-16.23,25.91-25.17,59.55-25.17,94.71v248.87c0,35.17,8.94,68.8,25.17,94.71,19.58,31.27,48.71,49.2,79.92,49.2h602.09c31.21,0,60.34-17.93,79.93-49.2,16.22-25.91,25.16-59.54,25.16-94.71V1381.34c0-35.16-8.94-68.8-25.16-94.71C1888.49,1255.36,1859.36,1237.43,1828.15,1237.43Zm25.09,392.78c0,20-4.72,39.09-13,52.25-5.47,8.73-10.62,11.66-12.13,11.66H1226.06c-1.51,0-6.66-2.93-12.12-11.66-8.24-13.16-13-32.2-13-52.25V1381.34c0-20,4.73-39.09,13-52.25,5.47-8.73,10.61-11.66,12.12-11.66h602.09c1.51,0,6.66,2.93,12.13,11.66,8.24,13.16,13,32.2,13,52.25Z"/><path d="M780.2,654.89H105.09C47.14,654.89,0,700.94,0,757.54v913.94c0,56.6,47.14,102.64,105.09,102.64H780.2c57.94,0,105.08-46,105.08-102.64V757.54C885.28,700.94,838.14,654.89,780.2,654.89Zm25.08,1016.59c0,12.49-11.25,22.64-25.08,22.64H105.09C91.25,1694.12,80,1684,80,1671.48V757.54c0-12.49,11.25-22.65,25.09-22.65H780.2c13.83,0,25.08,10.16,25.08,22.65Z"/><path d="M1828.15,0H1226.06C1168.12,0,1121,46.44,1121,103.51V979.28c0,57.08,47.15,103.51,105.09,103.51h602.09c57.95,0,105.09-46.43,105.09-103.51V103.51C1933.24,46.44,1886.1,0,1828.15,0Zm25.09,979.28c0,13-11.25,23.51-25.09,23.51H1226.06c-13.83,0-25.09-10.54-25.09-23.51V103.51c0-13,11.26-23.51,25.09-23.51h602.09c13.84,0,25.09,10.55,25.09,23.51Z"/><path d="M780.2,0H105.09C73.15,0,43.69,19.63,24.27,53.85,8.62,81.44,0,117.25,0,154.7V337.47c0,37.45,8.62,73.26,24.27,100.85,19.42,34.22,48.88,53.85,80.82,53.85H780.2c31.93,0,61.39-19.63,80.81-53.85,15.65-27.59,24.27-63.4,24.27-100.85V154.7c0-37.45-8.62-73.26-24.27-100.85C841.59,19.63,812.13,0,780.2,0Zm25.08,337.47c0,21.39-4.11,41.65-11.59,57-6.16,12.71-12.21,17-13.83,17.65H105.42c-1.61-.64-7.66-4.94-13.83-17.65-7.47-15.4-11.59-35.66-11.59-57V154.7c0-21.39,4.12-41.65,11.59-57,6.17-12.71,12.22-17,13.83-17.65H779.86c1.61.64,7.67,4.94,13.83,17.65,7.48,15.4,11.59,35.66,11.59,57Z"/></g></g></svg>