<svg xmlns="http://www.w3.org/2000/svg" viewBox="0 0 1057.76 1365.56"><defs><style>.cls-1{fill:#00aeef;}</style></defs><g id="Layer_2" data-name="Layer 2"><g id="Layer_1-2" data-name="Layer 1"><rect class="cls-1" x="450.29" y="1047.69" width="205.04" height="184.39"/><rect class="cls-1" x="187.44" y="809.05" width="212.03" height="185.69"/><rect class="cls-1" x="706.16" y="533.08" width="166.98" height="223.01"/><rect class="cls-1" x="450.29" y="533.08" width="205.04" height="223.01"/><rect class="cls-1" x="450.29" y="809.05" width="205.04" height="185.69"/><rect class="cls-1" x="187.44" y="533.08" width="212.03" height="223.01"/><path class="cls-1" d="M873.13,480.12V184.82c0-39.49-30.83-71.62-68.74-71.62H256.18c-37.9,0-68.74,32.13-68.74,71.62v295.3Z"/><path class="cls-1" d="M706.16,809.05v423h98.23c37.91,0,68.74-32.13,68.74-71.63V809.05Z"/><path class="cls-1" d="M399.47,1047.69h-212v112.76c0,39.5,30.84,71.63,68.74,71.63H399.47Z"/><path class="cls-1" d="M953.66,0H104.1A104.1,104.1,0,0,0,0,104.1V1261.46a104.1,104.1,0,0,0,104.1,104.1H953.66a104.1,104.1,0,0,0,104.1-104.1V104.1A104.1,104.1,0,0,0,953.66,0ZM924,1160.45c0,68.7-53.64,124.58-119.57,124.58H256.18c-65.93,0-119.57-55.88-119.57-124.58V184.82c0-68.69,53.64-124.58,119.57-124.58H804.39C870.32,60.24,924,116.13,924,184.82Z"/></g></g></svg>