<svg xmlns="http://www.w3.org/2000/svg" viewBox="0 0 92.46 120.16"><defs><style>.cls-1{fill:#ee3332;}</style></defs><g id="Layer_2" data-name="Layer 2"><g id="Layer_1-2" data-name="Layer 1"><path class="cls-1" d="M82.46,120.16H10.13a10,10,0,0,1-10-10V10a10,10,0,0,1,10-10H82.46a10,10,0,0,1,10,10V110.16A10,10,0,0,1,82.46,120.16ZM10.13,7a3,3,0,0,0-3,3V110.16a3,3,0,0,0,3,3H82.46a3,3,0,0,0,3-3V10a3,3,0,0,0-3-3Z"/><path class="cls-1" d="M89,42.53H3.63a3.5,3.5,0,0,1,0-7H89a3.5,3.5,0,0,1,0,7Z"/><path class="cls-1" d="M89,66.86H3.63a3.5,3.5,0,0,1,0-7H89a3.5,3.5,0,0,1,0,7Z"/><path class="cls-1" d="M61.18,92.18H3.5a3.5,3.5,0,0,1,0-7H61.18a3.5,3.5,0,1,1,0,7Z"/><path class="cls-1" d="M61.18,120.16a3.5,3.5,0,0,1-3.5-3.5V39a3.5,3.5,0,0,1,7,0v77.63A3.5,3.5,0,0,1,61.18,120.16Z"/><path class="cls-1" d="M29.62,120.16a3.5,3.5,0,0,1-3.5-3.5V39a3.5,3.5,0,1,1,7,0v77.63A3.5,3.5,0,0,1,29.62,120.16Z"/></g></g></svg>