<svg xmlns="http://www.w3.org/2000/svg" viewBox="0 0 1057.76 1365.56"><defs><style>.cls-1{fill:#00aeef;}.cls-2{fill:#231f20;}.cls-3{fill:#fff200;}</style></defs><g id="Layer_2" data-name="Layer 2"><g id="Layer_1-2" data-name="Layer 1"><rect class="cls-1" width="1057.76" height="1365.56" rx="104.1"/><path class="cls-2" d="M804.39,1285H256.18c-65.93,0-119.57-55.88-119.57-124.58V184.82c0-68.69,53.64-124.58,119.57-124.58H804.39C870.32,60.24,924,116.13,924,184.82v975.63C924,1229.15,870.32,1285,804.39,1285ZM256.18,113.2c-37.9,0-68.74,32.13-68.74,71.62v975.63c0,39.5,30.84,71.63,68.74,71.63H804.39c37.91,0,68.74-32.13,68.74-71.63V184.82c0-39.49-30.83-71.62-68.74-71.62Z"/><path class="cls-2" d="M898.55,533.08H162c-14,0-25.42-11.85-25.42-26.48S148,480.12,162,480.12H898.55c14,0,25.41,11.86,25.41,26.48S912.58,533.08,898.55,533.08Z"/><line class="cls-3" x1="162.03" y1="782.57" x2="898.55" y2="782.57"/><path class="cls-2" d="M898.55,809.05H162c-14,0-25.42-11.86-25.42-26.48S148,756.09,162,756.09H898.55c14,0,25.41,11.86,25.41,26.48S912.58,809.05,898.55,809.05Z"/><line class="cls-3" x1="162.03" y1="1021.21" x2="675" y2="1021.21"/><path class="cls-2" d="M675,1047.69H162c-14,0-25.42-11.85-25.42-26.48S148,994.74,162,994.74H675c14,0,25.41,11.85,25.41,26.47S689,1047.69,675,1047.69Z"/><line class="cls-3" x1="424.88" y1="506.6" x2="424.88" y2="1258.55"/><path class="cls-2" d="M424.88,1285c-14,0-25.41-11.85-25.41-26.47v-752c0-14.62,11.37-26.48,25.41-26.48S450.29,492,450.29,506.6v752C450.29,1273.18,438.91,1285,424.88,1285Z"/><line class="cls-3" x1="680.74" y1="506.6" x2="680.74" y2="1258.55"/><path class="cls-2" d="M680.74,1285c-14,0-25.41-11.85-25.41-26.47v-752c0-14.62,11.38-26.48,25.41-26.48S706.16,492,706.16,506.6v752C706.16,1273.18,694.78,1285,680.74,1285Z"/></g></g></svg>