<svg xmlns="http://www.w3.org/2000/svg" viewBox="0 0 1536.73 1572.34"><defs><style>.cls-1{fill:none;}</style></defs><g id="Layer_2" data-name="Layer 2"><g id="Layer_1-2" data-name="Layer 1"><path class="cls-1" d="M1297.7,1275.12c-7.89-105.73-105.53-189.56-224.41-189.56s-216.53,83.83-224.43,189.56q-.5,6.86-.5,13.83a185,185,0,0,0,12.22,66.17c30.43,79.76,114.29,137.22,212.71,137.22s182.28-57.46,212.7-137.22a185,185,0,0,0,12.22-66.17Q1298.21,1282,1297.7,1275.12Z"/><path class="cls-1" d="M853.28,325.83c21.65,91.85,112.08,161,220,161s198.36-69.1,220-160.95a185.33,185.33,0,0,0,1.07-80C1274.82,151.56,1183.12,80,1073.29,80S871.75,151.56,852.2,245.83a185.55,185.55,0,0,0,1.08,80Z"/><path class="cls-1" d="M697.56,760.48c-10.84-103.08-107.13-184-223.91-184s-213.06,80.9-223.9,184a185.22,185.22,0,0,0,9.17,80c28.58,82.65,114,142.8,214.73,142.8s186.16-60.15,214.74-142.8a185.22,185.22,0,0,0,9.17-80Z"/><path d="M44.23,325.83H763.36c9.83,59.58,40.34,114.56,88.32,158,59.19,53.52,137.9,83,221.61,83s162.41-29.48,221.59-83c48-43.39,78.5-98.37,88.33-157.95h109.28c24.43,0,44.24-17.91,44.24-40s-19.81-40-44.24-40H1384c-8.94-61.46-39.8-118.26-89.09-162.83C1235.7,29.47,1157,0,1073.29,0S910.87,29.47,851.68,83c-49.28,44.57-80.14,101.37-89.08,162.83H44.23c-24.42,0-44.23,17.91-44.23,40S19.81,325.83,44.23,325.83ZM1073.29,80c109.83,0,201.53,71.56,221.07,165.83a185.33,185.33,0,0,1-1.07,80c-21.64,91.85-112.07,161-220,161s-198.36-69.1-220-160.95a185.55,185.55,0,0,1-1.08-80C871.75,151.56,963.45,80,1073.29,80Z"/><path d="M1492.49,760.48H786.32c-5.08-68.39-37-132.05-91.06-181-59.2-53.52-137.9-83-221.61-83s-162.41,29.48-221.6,83c-54.11,48.93-86,112.59-91.06,181H44.23c-24.42,0-44.23,17.91-44.23,40s19.81,40,44.23,40H167.41C180,893.05,209,941.33,252.05,980.28c59.19,53.52,137.89,83,221.6,83s162.41-29.48,221.61-83c43.06-38.95,72-87.23,84.64-139.8h712.59c24.43,0,44.24-17.91,44.24-40S1516.92,760.48,1492.49,760.48ZM473.65,983.28c-100.7,0-186.15-60.15-214.73-142.8a185.22,185.22,0,0,1-9.17-80c10.84-103.08,107.12-184,223.9-184s213.07,80.9,223.91,184a185.22,185.22,0,0,1-9.17,80C659.81,923.13,574.36,983.28,473.65,983.28Z"/><path d="M1492.49,1275.12H1386.32c-3.73-70.5-35.86-136.3-91.44-186.56-59.18-53.52-137.89-83-221.59-83s-162.42,29.48-221.61,83c-55.58,50.26-87.7,116.06-91.43,186.56h-716c-24.42,0-44.23,17.91-44.23,40s19.81,40,44.23,40H768.42c13.27,50.41,41.72,96.65,83.26,134.22,59.19,53.53,137.9,83,221.61,83s162.41-29.47,221.59-83c41.55-37.57,70-83.81,83.26-134.22h114.35c24.43,0,44.24-17.9,44.24-40S1516.92,1275.12,1492.49,1275.12Zm-419.2,217.22c-98.42,0-182.28-57.46-212.71-137.22A185,185,0,0,1,848.36,1289q0-7,.5-13.83c7.9-105.73,105.55-189.56,224.43-189.56s216.52,83.83,224.41,189.56q.51,6.86.51,13.83a185,185,0,0,1-12.22,66.17C1255.57,1434.88,1171.71,1492.34,1073.29,1492.34Z"/></g></g></svg>