<svg xmlns="http://www.w3.org/2000/svg" viewBox="0 0 1713.03 1401"><defs><style>.cls-1{fill:#00aeef;}</style></defs><g id="Layer_2" data-name="Layer 2"><g id="Layer_1-2" data-name="Layer 1"><path class="cls-1" d="M865.88,0C727,0,614,113,614,251.87S727,503.75,865.88,503.75s251.87-113,251.87-251.88S1004.76,0,865.88,0Z"/><path class="cls-1" d="M0,1401v-55c0-84.71,31.63-168.3,94-248.45C147.35,1029,220.94,965.61,312.72,909.17c83-51.06,177.67-93.88,273.67-123.85s189.49-33.83,270.12-33.83,174,3.85,270.13,33.83,190.63,72.79,273.66,123.85c91.79,56.44,165.38,119.82,218.73,188.38,62.37,80.15,94,163.74,94,248.45v55Zm1596.54-110c-31.42-133.39-169.88-236.49-253.86-288.13-151.52-93.18-342.36-141.38-486.17-141.38s-334.64,48.2-486.17,141.38c-84,51.64-222.43,154.74-253.86,288.13Z"/></g></g></svg>