<svg xmlns="http://www.w3.org/2000/svg" viewBox="0 0 1232.27 1634.24"><defs><style>.cls-1{fill:#00aeef;}</style></defs><g id="Layer_2" data-name="Layer 2"><g id="Layer_1-2" data-name="Layer 1"><path class="cls-1" d="M616.13,726.27a49.81,49.81,0,0,1-35.35-14.65L14.64,355.49a50,50,0,0,1,0-70.71L580.78,14.64a50,50,0,0,1,70.71,0l566.13,270.14a50,50,0,0,1,0,70.71L651.49,711.62A49.82,49.82,0,0,1,616.13,726.27ZM120.71,320.13,616.13,605.56l495.43-285.43L616.13,120.71Z"/><path class="cls-1" d="M616.12,1634.24a50,50,0,0,1-50-50v-908a50,50,0,0,1,100,0v790.34l466.14-449.22V320.13a50,50,0,0,1,100,0v718.52a50,50,0,0,1-15.3,36L650.83,1620.24A50,50,0,0,1,616.12,1634.24Z"/><path class="cls-1" d="M616.12,1634.24a49.8,49.8,0,0,1-33.29-12.71L16.7,1116A50,50,0,0,1,0,1078.71V320.13a50,50,0,0,1,100,0v736.19l549.44,490.62a50,50,0,0,1-33.32,87.3Z"/></g></g></svg>