<svg xmlns="http://www.w3.org/2000/svg" viewBox="0 0 1392.94 1588.48"><defs><style>.cls-1{fill:none;}</style></defs><g id="Layer_2" data-name="Layer 2"><g id="Layer_1-2" data-name="Layer 1"><path class="cls-1" d="M1312.94,476.25v-3.88c0-152.93-124.41-277.34-277.34-277.34H999v80.89a40,40,0,1,1-80,0V195H499v80.89a40,40,0,1,1-80,0V195H357.34C204.41,195,80,319.44,80,472.37v3.88Z"/><path class="cls-1" d="M80,556.25v674.89c0,152.93,124.41,277.34,277.34,277.34H1035.6c152.93,0,277.34-124.41,277.34-277.34V556.25Z"/><path d="M1364.85,333.26A357.1,357.1,0,0,0,1035.6,115H999V40a40,40,0,0,0-80,0v75H499V40a40,40,0,0,0-80,0v75H357.34A357.08,357.08,0,0,0,0,472.37v758.77a357.08,357.08,0,0,0,357.34,357.34H1035.6a357,357,0,0,0,357.34-357.34V472.37A355.21,355.21,0,0,0,1364.85,333.26ZM357.34,195H419v80.89a40,40,0,1,0,80,0V195H919v80.89a40,40,0,1,0,80,0V195h36.63c152.93,0,277.34,124.41,277.34,277.34v3.88H80v-3.88C80,319.44,204.41,195,357.34,195ZM1035.6,1508.48H357.34C204.41,1508.48,80,1384.07,80,1231.14V556.25H1312.94v674.89C1312.94,1384.07,1188.53,1508.48,1035.6,1508.48Z"/></g></g></svg>