<svg class="svg-hour" xmlns="http://www.w3.org/2000/svg" viewBox="0 0 1136.22 1153.97"><defs></defs><g id="Layer_2" data-name="Layer 2"><g id="Layer_1-2" data-name="Layer 1"><path class="svg-hour-cls" d="M577,1154A577.12,577.12,0,0,1,352.39,45.36,573.3,573.3,0,0,1,577,0a35,35,0,0,1,0,70C297.43,70,70,297.43,70,577s227.43,507,507,507c208.77,0,399.14-131,473.7-325.9a35,35,0,1,1,65.38,25,578.58,578.58,0,0,1-208.35,266.75C810.48,1118,696.11,1154,577,1154Z"/><circle class="svg-hour-cls" cx="695.56" cy="53.09" r="37.41"/><circle class="svg-hour-cls" cx="866.52" cy="131.33" r="37.41"/><circle class="svg-hour-cls" cx="1000.41" cy="263.32" r="37.41"/><circle class="svg-hour-cls" cx="1081.08" cy="433.15" r="37.41"/><circle class="svg-hour-cls" cx="1098.8" cy="620.32" r="37.41"/><path class="svg-hour-cls" d="M903.91,770.45a34.82,34.82,0,0,1-14.59-3.21L544.57,608.79A35,35,0,0,1,524.19,577V171.81a35,35,0,1,1,70,0V554.55L918.55,703.64a35,35,0,0,1-14.64,66.81Z"/></g></g></svg>