<svg xmlns="http://www.w3.org/2000/svg" viewBox="0 0 100 100"><defs><style>.cls-1{fill:#ee3332;}.cls-2{fill:none;stroke:#ee3332;stroke-miterlimit:10;stroke-width:7px;}</style></defs><g id="Layer_2" data-name="Layer 2"><g id="Layer_1-2" data-name="Layer 1"><path class="cls-1" d="M100,100,57.6,73.53H11.48C5.15,73.53,0,68,0,61.14V12.4C0,5.56,5.15,0,11.48,0H88.53C94.86,0,100,5.56,100,12.4ZM11.48,8.28A4,4,0,0,0,7.66,12.4V61.14a4,4,0,0,0,3.82,4.11H59.65L92.34,85.66V12.4a4,4,0,0,0-3.81-4.12Z"/><ellipse class="cls-1" cx="26.79" cy="37" rx="5.48" ry="5.92"/><ellipse class="cls-1" cx="48.68" cy="37" rx="5.48" ry="5.92"/><ellipse class="cls-1" cx="70.56" cy="37" rx="5.48" ry="5.92"/><line class="cls-2" x1="58.62" y1="69.39" x2="57.88" y2="68.93"/></g></g></svg>