<svg class="svg-threepoints" xmlns="http://www.w3.org/2000/svg" viewBox="0 0 1193.51 1125.09"><defs></defs><g id="Layer_2" data-name="Layer 2"><g id="Layer_1-2" data-name="Layer 1"><path class="svg-threepoints-cls" d="M1135.66,1125.09a51.08,51.08,0,0,1-35.33-14.15L832.75,879.1c-.63-.54-1.24-1.11-1.83-1.7a3.43,3.43,0,0,0-2.44-1H81.41A81.5,81.5,0,0,1,0,795V81.41A81.5,81.5,0,0,1,81.41,0H1112.09a81.5,81.5,0,0,1,81.42,81.41V1066c0,23.64-14.84,45.68-36.93,54.83A54.61,54.61,0,0,1,1135.66,1125.09ZM879.39,826.89l244.12,211.52v-957A11.43,11.43,0,0,0,1112.09,70H81.41A11.42,11.42,0,0,0,70,81.41V795a11.42,11.42,0,0,0,11.41,11.41H828.48A73,73,0,0,1,879.39,826.89Z"/><circle class="svg-threepoints-cls" cx="354.97" cy="419.19" r="72.84"/><circle class="svg-threepoints-cls" cx="604.97" cy="419.19" r="72.84"/><circle class="svg-threepoints-cls" cx="864.97" cy="419.19" r="72.84"/></g></g></svg>